<?xml version="1.0" encoding="utf-8"?>
<!-- Generator: Adobe Illustrator 26.0.2, SVG Export Plug-In . SVG Version: 6.00 Build 0)  -->
<svg version="1.1" id="Layer_1" xmlns="http://www.w3.org/2000/svg" xmlns:xlink="http://www.w3.org/1999/xlink" x="0px" y="0px"
	 viewBox="0 0 250 150" style="enable-background:new 0 0 250 150;" xml:space="preserve">
<style type="text/css">
	.st0{fill:none;stroke:#FFFFFF;stroke-width:0.9518;stroke-miterlimit:10;}
	.st1{fill:#C0272D;stroke:#C0272D;stroke-width:0.4759;stroke-miterlimit:10;}
</style>
<g>
	<g>
		<path class="st0" d="M13.6,90.6H1l18.4-48.3H32L13.6,90.6z"/>
		<path class="st0" d="M49.4,67.5l2.2-5.7c0.2-0.5,0.3-0.9,0.3-1.3c0-0.5-0.3-0.9-0.9-1c-0.6-0.2-1.6-0.2-3.1-0.2
			c-2.1,0-3.5,0.2-4.2,0.5c-0.7,0.3-1.2,1-1.6,2.1l-8.1,21c-0.2,0.6-0.3,1-0.3,1.3c0,0.6,0.3,0.9,0.9,1.1c0.6,0.2,1.7,0.2,3.2,0.2
			c1.9,0,3.2-0.2,4-0.6c0.7-0.4,1.3-1.1,1.6-2l3.6-9.5h10.2l-3.8,10.1c-0.7,1.7-1.4,3.1-2.3,4.1c-0.8,1-1.9,1.8-3.2,2.4
			c-1.3,0.5-3,0.9-4.9,1c-2,0.2-4.4,0.2-7.4,0.2c-2.5,0-4.6-0.1-6.3-0.2c-1.7-0.1-3.1-0.3-4.2-0.6c-1.1-0.3-1.9-0.7-2.4-1.2
			c-0.5-0.5-0.7-1.2-0.7-2c0-0.5,0.1-1.1,0.2-1.7c0.1-0.6,0.3-1.3,0.7-2.1l8.6-22.3c0.7-1.7,1.4-3.1,2.2-4.1c0.8-1,1.9-1.8,3.3-2.4
			c1.4-0.6,3.1-0.9,5.2-1.1c2.1-0.2,4.7-0.2,8-0.2c4.7,0,8,0.3,10,0.8c1.9,0.5,2.9,1.6,2.9,3.1c0,0.5-0.1,1.1-0.3,1.8
			c-0.2,0.7-0.4,1.4-0.7,2l-2.4,6.4H49.4z"/>
		<path class="st0" d="M73.4,74.5l-3.3,8.6c-0.1,0.3-0.3,0.6-0.3,0.9c-0.1,0.2-0.1,0.5-0.1,0.7c0,0.5,0.3,0.9,0.9,1
			c0.6,0.2,1.7,0.2,3.1,0.2c2,0,3.3-0.2,4.1-0.5c0.7-0.3,1.3-1.1,1.8-2.3l1.9-5h10.1l-2.1,5.3c-0.7,1.7-1.4,3.1-2.2,4.1
			c-0.8,1-1.9,1.8-3.1,2.4c-1.3,0.6-2.9,0.9-4.9,1.1c-2,0.2-4.5,0.2-7.6,0.2c-5,0-8.5-0.2-10.6-0.7C59,90,58,89,58,87.3
			c0-0.5,0.1-1.1,0.2-1.7c0.1-0.6,0.3-1.3,0.7-2.1l8.6-22.3c0.7-1.7,1.4-3.1,2.2-4.1c0.8-1,1.9-1.8,3.2-2.4c1.4-0.6,3.1-0.9,5.2-1.1
			c2.1-0.2,4.8-0.2,8-0.2c4.6,0,7.9,0.2,9.9,0.7c2,0.4,3,1.5,3,3.1c0,1-0.3,2.3-1,4l-5.1,13.3H73.4z M75.2,69.4h9.5l3-7.8
			c0.2-0.6,0.3-1.1,0.3-1.5c0-0.5-0.3-0.9-0.9-1c-0.6-0.2-1.6-0.2-3.1-0.2c-2.1,0-3.4,0.2-4.1,0.5c-0.7,0.3-1.3,1.1-1.7,2.3
			L75.2,69.4z"/>
		<path class="st0" d="M165.1,62.6c1.7,0.2,3,0.7,4.1,1.2c1,0.6,1.5,1.6,1.5,3c0,0.9-0.3,2.1-0.9,3.7L166,80.7
			c-0.8,2.2-1.7,3.9-2.7,5.2c-1,1.3-2.3,2.3-3.9,3c-1.6,0.7-3.6,1.2-6,1.4c-2.4,0.2-5.5,0.3-9.2,0.3h-18l18.4-48.3h18
			c2.9,0,5.3,0.1,7.3,0.2c2,0.1,3.6,0.4,4.8,0.7c1.2,0.3,2.1,0.8,2.7,1.4c0.5,0.6,0.8,1.4,0.8,2.4c0,0.7-0.1,1.4-0.3,2.3
			c-0.2,0.8-0.5,1.8-0.9,2.8l-1.3,3.6c-0.4,1.3-1.1,2.3-2,3.1c-0.9,0.8-1.8,1.5-2.8,2c-1,0.5-2,0.9-3,1.1c-1,0.2-1.9,0.4-2.6,0.4
			L165.1,62.6z M141,84.5h5.4c1.2,0,2.1-0.1,2.9-0.2c0.7-0.1,1.3-0.3,1.8-0.6c0.5-0.3,0.9-0.7,1.2-1.2c0.3-0.5,0.6-1.2,0.9-2
			l4.5-11.8c0.3-0.7,0.4-1.3,0.4-1.9c0-0.6-0.3-1-0.9-1.3c-0.6-0.2-1.7-0.4-3.2-0.4h-5.7L141,84.5z M150.5,59.8h5.7
			c2.1,0,3.5-0.2,4.3-0.7c0.8-0.4,1.4-1.3,1.9-2.4l1.8-4.5c0.1-0.4,0.3-0.8,0.4-1.2c0.1-0.3,0.2-0.7,0.2-0.9c0-0.6-0.3-1-1-1.3
			c-0.7-0.2-1.8-0.3-3.5-0.3h-5.4L150.5,59.8z"/>
		<path class="st0" d="M201.6,83.4c-0.7,1.7-1.4,3.1-2.2,4.1c-0.8,1-1.9,1.8-3.3,2.4c-1.4,0.6-3.1,0.9-5.2,1.1
			c-2.1,0.2-4.7,0.2-8,0.2c-5,0-8.5-0.2-10.6-0.7c-2.1-0.5-3.1-1.5-3.1-3.2c0-0.5,0.1-1.1,0.2-1.7c0.1-0.6,0.3-1.3,0.7-2.1l8.6-22.3
			c0.7-1.7,1.4-3.1,2.2-4.1c0.8-1,1.9-1.8,3.2-2.4c1.4-0.6,3.1-0.9,5.2-1.1c2.1-0.2,4.8-0.2,8-0.2c4.9,0,8.4,0.2,10.5,0.7
			c2.1,0.5,3.1,1.5,3.1,3.2c0,0.5-0.1,1.1-0.2,1.7c-0.1,0.6-0.4,1.3-0.7,2.1L201.6,83.4z M199.1,61.8c0.2-0.5,0.3-0.9,0.3-1.3
			c0-0.5-0.3-0.9-0.9-1c-0.6-0.2-1.7-0.2-3.2-0.2c-2.1,0-3.4,0.2-4.2,0.5c-0.7,0.3-1.3,1-1.6,2l-8.1,21c-0.2,0.6-0.3,1-0.3,1.3
			c0,0.6,0.3,0.9,0.9,1.1c0.6,0.2,1.7,0.2,3.2,0.2c2.1,0,3.5-0.2,4.2-0.6c0.7-0.4,1.2-1.1,1.6-2L199.1,61.8z"/>
		<path class="st0" d="M249,54l-14.5,17.4l1.9,19.2h-11.7V74.3l-12.4,16.3h-11.7l16.5-19.3l-2-17.3h11.4l0.7,14l11-14H249z"/>
	</g>
	<g>
		<path class="st1" d="M4.8,106C10,101.8,15.3,93.2,17,86.7c0-0.1,0-0.2,0-0.2c0-0.1-0.1-0.2-0.2-0.2c-0.3,0-4.2,0.6-6.2,1.1
			c-0.5,0.1-0.7,0.3-0.9,0.5c-0.2,0.2-0.3,0.4-0.6,0.4c-0.8,0-1.9-1.6-1.9-2.7c0-0.9,0.5-1.2,0.5-1.2c0.1,1.6,1.3,1.6,2.2,1.6
			c0.6,0,5.2-0.4,6.8-0.7c0.3-0.1,0.5-0.2,0.6-0.4c0.2-0.2,0.4-0.5,0.6-0.5c0.4,0,1.9,1.5,1.9,2c0,0.4-0.3,0.6-0.6,0.7
			c-0.3,0.2-0.5,0.5-0.6,0.8c-0.7,1.9-2.4,5.7-3.7,8c2,1.5,4.5,3.7,5.7,5.4c0.9,1.3,1.8,2.8,1.8,3.7c0,0.8-0.3,1.5-0.9,1.5
			c-0.5,0-0.9-1-1.7-2.6c-0.9-1.9-3.5-5.6-5.5-7.2c-2,3.3-5.4,7.6-9.1,10L4.8,106z"/>
		<path class="st1" d="M30.4,83.3c0.1-0.5,0.6-1,1.1-1c1,0,2.7,1,2.7,2.1c0,0.3-0.2,0.4-0.3,0.7c-0.1,0.1-0.1,0.4-0.1,0.9
			c-0.1,1.2-0.1,3.7-0.1,6c2.5,0.4,4.8,1.3,6.1,2.3c1.2,1,1.8,1.7,1.8,2.7c0,0.7-0.3,1.1-0.7,1.1c-0.6,0-1.1-0.7-1.7-1.4
			c-0.9-1.2-3.1-2.9-5.5-3.8c0,2.1,0,4.4,0,6.2c0,1,0.1,5.8,0.1,6.8c0,1.3-0.4,1.8-0.8,1.8c-0.8,0-1.1-2.6-1.3-3.7
			c0.2-0.3,0.3-0.7,0.4-1.3c0.2-1.4,0.3-3.4,0.3-9.8c0-2.7,0-5.3-0.1-6.7C32.1,84.8,31.9,83.4,30.4,83.3L30.4,83.3z"/>
		<path class="st1" d="M49.5,85.4c0.1-0.5,0.6-0.8,1.1-0.8c0.7,0,2.2,0.8,2.2,2c0,0.2-0.1,0.7-0.2,1.1c-0.1,0.5-0.2,1.2-0.2,2.5
			c0,1,0,5.6,0,6.7c0,1.2-0.2,2.3-0.8,2.3c-0.7,0-1-1.4-1-2.8c0-0.4,0.3-0.6,0.3-2.7c0-1.3,0-2.7,0-3.7C51,86.7,51,85.5,49.5,85.4
			L49.5,85.4z M57.9,83.6c0-0.4,0.6-1,1.1-1c0.8,0,2.5,0.9,2.5,1.8c0,0.3-0.2,0.4-0.3,0.7c-0.1,0.1-0.1,0.4-0.1,0.7v7.5
			c0,7.5-2.5,12.1-8.5,14.5l-0.3-0.7c5-2.6,7.3-6.9,7.3-13.9v-4.3C59.6,85.2,59.6,83.5,57.9,83.6L57.9,83.6z"/>
		<path class="st1" d="M81.5,93.8c1.4,0,2.3-0.2,2.6-0.2c1,0,2.4,0.5,2.4,1.2c0,0.5-0.4,0.8-1.2,0.8c-0.4,0-0.8,0-1.3,0
			c-0.9-0.1-2.6-0.1-3.9-0.1c-2.5,0-8.3,0-9.3,0.5c-0.3,0.1-0.6,0.4-0.9,0.4c-0.8,0-2.2-1.8-2.2-3c0-0.7,0.1-1.1,0.4-1.5l0.2,0
			c0.2,1.6,1.1,1.9,3.3,1.9H81.5z"/>
		<path class="st1" d="M93.8,83.3c0.1-0.5,0.6-1,1.1-1c1,0,2.7,1,2.7,2.1c0,0.3-0.2,0.4-0.3,0.7c-0.1,0.1-0.1,0.4-0.1,0.9
			c-0.1,1.2-0.1,3.7-0.1,6c2.5,0.4,4.8,1.3,6.1,2.3c1.2,1,1.8,1.7,1.8,2.7c0,0.7-0.3,1.1-0.7,1.1c-0.6,0-1.1-0.7-1.7-1.4
			c-0.9-1.2-3.1-2.9-5.5-3.8c0,2.1,0,4.4,0,6.2c0,1,0.1,5.8,0.1,6.8c0,1.3-0.4,1.8-0.8,1.8c-0.8,0-1.1-2.6-1.3-3.7
			c0.2-0.3,0.3-0.7,0.4-1.3c0.2-1.4,0.3-3.4,0.3-9.8c0-2.7,0-5.3-0.1-6.7C95.5,84.8,95.3,83.4,93.8,83.3L93.8,83.3z"/>
		<path class="st1" d="M111.9,96.3c3.9-4.3,6-10.7,6-12.4c0-0.9-1-1-1.2-1c0.2-0.5,0.5-0.9,1.1-0.9c0.9,0,2.5,1.2,2.5,2
			c0,0.4-0.3,0.4-0.5,0.7c-0.1,0.1-0.3,0.3-0.5,0.7c-0.3,1-0.7,2-1.2,3.1c1,0.1,4.4-0.4,5.7-0.7c0.4-0.1,0.6-0.3,0.8-0.5
			c0.2-0.3,0.3-0.5,0.5-0.5c0.4,0,1.9,1.5,1.9,2c0,0.4-0.3,0.4-0.6,0.7c-0.2,0.1-0.5,0.6-0.6,1.1c-1.9,7.3-5.3,13.6-12,17.1
			l-0.3-0.6c5.8-3.9,9.2-10.3,10.9-17.5c0-0.2,0.1-0.3,0.1-0.4c0-0.1-0.1-0.2-0.2-0.2c-0.8,0-4.7,1.1-5.3,1.1c-0.6,0-1-0.2-1.3-0.5
			c-1.3,2.6-3,5.4-5.4,7.3L111.9,96.3z"/>
		<path class="st1" d="M134,88.3c0.2-0.4,0.6-0.9,1.1-0.9c0.9,0,2.4,1,2.4,1.8c0,0.4-0.2,0.5-0.3,0.7c-0.1,0.2-0.1,0.4-0.2,0.8
			c-0.6,6.3-2,12.1-5.8,16.1l-0.4-0.5c3-4.2,4.4-10.6,4.7-16.3c0-1.2-0.7-1.7-1.5-1.6L134,88.3z M150.4,91.8
			c-1.4,6.4-4.1,10-7.4,12.5c-0.4,0.3-0.6,0.6-0.8,0.9c-0.3,0.4-0.4,0.9-0.6,0.9c-0.5,0-1.4-1.4-1.4-2.2c0-0.4,0.2-0.7,0.3-1
			c0.1-0.3,0.1-0.8,0.2-1.6c0-1.6,0.1-4.8,0.1-7.9c0-2.7,0-5.3,0-6.6c0-1.2-0.1-2.1-0.5-2.4c-0.3-0.2-0.7-0.3-1.1-0.2l0,0
			c0.1-0.5,0.5-1.1,1.2-1.1c0.9,0,2.4,0.8,2.4,1.9c0,0.4-0.2,0.6-0.3,0.9c-0.2,0.3-0.3,0.7-0.3,1.4c-0.1,2.9-0.2,7.7-0.2,12.1v3.1
			c0,0.1,0,0.2,0.1,0.2c0.4,0,5.7-3.4,7.9-11.1L150.4,91.8z"/>
		<path class="st1" d="M166,93.8c1.4,0,2.3-0.2,2.6-0.2c1,0,2.4,0.5,2.4,1.2c0,0.5-0.4,0.8-1.2,0.8c-0.4,0-0.8,0-1.3,0
			c-0.9-0.1-2.6-0.1-3.9-0.1c-2.5,0-8.3,0-9.3,0.5c-0.3,0.1-0.6,0.4-0.9,0.4c-0.8,0-2.2-1.8-2.2-3c0-0.7,0.1-1.1,0.4-1.5l0.2,0
			c0.2,1.6,1.1,1.9,3.3,1.9H166z"/>
	</g>
</g>
</svg>
